<?xml version="1.0" encoding="UTF-8"?>
<svg width="90px" height="66px" viewBox="0 0 90 66" version="1.1" xmlns="http://www.w3.org/2000/svg" xmlns:xlink="http://www.w3.org/1999/xlink">
    <!-- Generator: Sketch 47.1 (45422) - http://www.bohemiancoding.com/sketch -->
    <title>logo</title>
    <desc>Created with Sketch.</desc>
    <defs></defs>
    <g id="Page-1" stroke="none" stroke-width="1" fill="none" fill-rule="evenodd">
        <g id="logo" fill-rule="nonzero" fill="#000000">
            <path d="M63.175,46.648 L26.976,46.648 C23.47,46.611 20.443,45.336 17.964,42.861 C15.417,40.312 14.126,37.195 14.126,33.599 C14.126,29.996 15.421,26.896 17.972,24.38 C20.48,21.873 23.579,20.598 27.175,20.598 C30.738,20.598 33.833,21.87 36.378,24.38 C38.962,26.887 40.274,29.991 40.274,33.599 C40.274,37.202 38.963,40.32 36.378,42.868 C36.103,43.142 35.821,43.404 35.534,43.648 L55.171,43.648 C54.878,43.4 54.596,43.138 54.317,42.859 C51.739,40.318 50.425,37.201 50.425,33.599 C50.425,29.994 51.738,26.889 54.331,24.372 C56.829,21.873 59.927,20.598 63.523,20.598 C67.15,20.598 70.282,21.87 72.827,24.38 C75.349,26.901 76.626,30.001 76.626,33.599 C76.626,37.191 75.355,40.304 72.843,42.851 C70.321,45.338 67.315,46.611 63.895,46.648 L63.175,46.648 L63.175,46.648 Z M27.175,23.6 C24.364,23.6 22.046,24.552 20.085,26.511 C18.093,28.476 17.126,30.792 17.126,33.6 C17.126,36.413 18.095,38.747 20.085,40.741 C22.017,42.671 24.274,43.623 26.991,43.651 L27.657,43.651 C30.208,43.588 32.368,42.636 34.264,40.741 C36.291,38.743 37.274,36.41 37.274,33.6 C37.274,30.796 36.295,28.482 34.28,26.527 C32.28,24.555 29.96,23.6 27.175,23.6 Z M63.191,43.648 L63.876,43.648 C66.516,43.621 68.759,42.666 70.723,40.73 C72.671,38.752 73.626,36.416 73.626,33.599 C73.626,30.786 72.675,28.468 70.714,26.509 C68.731,24.553 66.376,23.598 63.526,23.598 C60.714,23.598 58.397,24.55 56.438,26.509 C54.407,28.482 53.425,30.795 53.425,33.599 C53.425,36.407 54.407,38.74 56.43,40.73 C58.333,42.636 60.544,43.588 63.191,43.648 Z" id="Shape"></path>
            <path d="M88.075,65.3 L1.925,65.3 C1.097,65.3 0.425,64.629 0.425,63.8 L0.425,2.2 C0.425,1.371 1.097,0.7 1.925,0.7 L88.075,0.7 C88.902,0.7 89.575,1.371 89.575,2.2 L89.575,63.8 C89.575,64.629 88.902,65.3 88.075,65.3 Z M3.425,62.3 L86.575,62.3 L86.575,3.7 L3.425,3.7 L3.425,62.3 Z" id="Shape"></path>
        </g>
    </g>
</svg>